<?xml version="1.0" encoding="UTF-8"?>
<svg id="Layer_1" xmlns="http://www.w3.org/2000/svg" xmlns:xlink="http://www.w3.org/1999/xlink" version="1.1" viewBox="0 0 534.13 634">
  <!-- Generator: Adobe Illustrator 29.4.0, SVG Export Plug-In . SVG Version: 2.1.0 Build 152)  -->
  <defs>
    <style>
      .st0 {
        fill: url(#linear-gradient2);
      }

      .st1 {
        fill: url(#linear-gradient1);
      }

      .st2 {
        fill: url(#linear-gradient9);
      }

      .st3 {
        fill: url(#linear-gradient3);
      }

      .st4 {
        fill: url(#linear-gradient6);
      }

      .st5 {
        fill: url(#linear-gradient8);
      }

      .st6 {
        fill: url(#linear-gradient7);
      }

      .st7 {
        fill: url(#linear-gradient5);
      }

      .st8 {
        fill: url(#linear-gradient4);
      }

      .st9 {
        fill: url(#linear-gradient13);
      }

      .st10 {
        fill: url(#linear-gradient12);
      }

      .st11 {
        fill: url(#linear-gradient15);
      }

      .st12 {
        fill: url(#linear-gradient11);
      }

      .st13 {
        fill: url(#linear-gradient10);
      }

      .st14 {
        fill: url(#linear-gradient14);
      }

      .st15 {
        fill: url(#linear-gradient);
      }

      .st16 {
        fill: #fff;
      }
    </style>
    <linearGradient id="linear-gradient" x1="-1361.12" y1="316.61" x2="-1516.54" y2="186.67" gradientTransform="translate(-1079.08 423.96) rotate(-180)" gradientUnits="userSpaceOnUse">
      <stop offset="0" stop-color="#848282"/>
      <stop offset="1" stop-color="#242121"/>
    </linearGradient>
    <linearGradient id="linear-gradient1" x1="-1552.8" y1="267.48" x2="-1322.95" y2="267.48" xlink:href="#linear-gradient"/>
    <linearGradient id="linear-gradient2" x1="-1230.53" y1="163.65" x2="-1414.95" y2="304.85" gradientTransform="translate(-1079.08 423.96) rotate(-180)" gradientUnits="userSpaceOnUse">
      <stop offset="0" stop-color="#232a5b"/>
      <stop offset="1" stop-color="#2270b4"/>
    </linearGradient>
    <linearGradient id="linear-gradient3" x1="-1470.76" y1="356.08" x2="-1168.07" y2="154.29" xlink:href="#linear-gradient2"/>
    <linearGradient id="linear-gradient4" x1="81.79" y1="371.17" x2="107.96" y2="265.28" gradientUnits="userSpaceOnUse">
      <stop offset="0" stop-color="#136bb1"/>
      <stop offset="1" stop-color="#21285b"/>
    </linearGradient>
    <linearGradient id="linear-gradient5" x1="209.99" y1="284.2" x2="214.76" y2="284.2" xlink:href="#linear-gradient4"/>
    <linearGradient id="linear-gradient6" x1="296.99" y1="328.89" x2="245.18" y2="332.51" gradientUnits="userSpaceOnUse">
      <stop offset="0" stop-color="#eae9e9"/>
      <stop offset="1" stop-color="#323031"/>
    </linearGradient>
    <linearGradient id="linear-gradient7" x1="130.36" y1="273.19" x2="233.1" y2="271.83" gradientTransform="translate(629.75 602.96) rotate(-180)" xlink:href="#linear-gradient4"/>
    <linearGradient id="linear-gradient8" x1="291.37" y1="269.96" x2="149.7" y2="405.46" gradientTransform="translate(629.75 602.96) rotate(-180)" xlink:href="#linear-gradient4"/>
    <linearGradient id="linear-gradient9" x1="219.32" y1="297.32" x2="303.36" y2="290.99" gradientUnits="userSpaceOnUse">
      <stop offset="0" stop-color="#b9b6b5"/>
      <stop offset="1" stop-color="#323031"/>
    </linearGradient>
    <linearGradient id="linear-gradient10" x1="121.51" y1="312.3" x2="215.38" y2="264.21" xlink:href="#linear-gradient4"/>
    <linearGradient id="linear-gradient11" x1="190.54" y1="392.18" x2="218.42" y2="392.18" xlink:href="#linear-gradient4"/>
    <linearGradient id="linear-gradient12" x1="566.59" y1="-79.53" x2="411.17" y2="-209.47" gradientTransform="translate(-314.5 606.17)" xlink:href="#linear-gradient"/>
    <linearGradient id="linear-gradient13" x1="374.9" y1="-128.66" x2="604.76" y2="-128.66" gradientTransform="translate(-314.5 606.17)" xlink:href="#linear-gradient"/>
    <linearGradient id="linear-gradient14" x1="697.18" y1="-232.48" x2="512.76" y2="-91.28" gradientTransform="translate(-314.5 606.17)" xlink:href="#linear-gradient2"/>
    <linearGradient id="linear-gradient15" x1="456.95" y1="-40.05" x2="759.63" y2="-241.84" gradientTransform="translate(-314.5 606.17)" xlink:href="#linear-gradient2"/>
  </defs>
  <g>
    <path class="st16" d="M417.43,210.22c-3.04,0-5.77-1.88-6.85-4.73-10.37-27.31-29.87-48.57-56.4-61.5-18.33-8.93-38.93-13.46-61.23-13.46-15.38,0-31.25,2.18-47.17,6.49-.64.17-1.28.26-1.92.26-3.03,0-5.85-1.9-6.9-4.88-1.28-3.61.44-7.6,3.94-9.15,9.51-4.21,19.36-7.86,29.26-10.84,21.27-6.41,42.55-9.66,63.25-9.66,27.26,0,52.53,5.58,75.12,16.58,34.63,16.87,59.56,44.93,72.12,81.16.78,2.24.42,4.72-.95,6.65-1.37,1.93-3.6,3.08-5.97,3.08h-56.29Z"/>
    <path class="st16" d="M405.32,125.92c-39.61-19.3-87.06-20.35-133.05-6.49-9.56,2.88-19.05,6.39-28.4,10.53,39.41-10.66,79.66-9.04,113.52,7.45,29.2,14.23,49.41,37.47,60.05,65.48h56.29c-11.44-33-34.47-60.44-68.4-76.97Z"/>
    <path class="st16" d="M60.4,215.56c-2.7,0-5.19-1.49-6.46-3.87-1.28-2.38-1.14-5.27.36-7.52.27-.41.53-.82.8-1.22.42-.65.83-1.29,1.27-1.93C113.73,117.17,210.48,63,302.84,63c6.7,0,13.41.29,19.95.87,14.03,1.24,27.73,3.83,40.73,7.7,9.98,2.97,19.66,6.73,28.78,11.18,25.56,12.45,46.71,30.07,62.86,52.35,2.18,3.01,1.76,7.18-.98,9.7-1.4,1.29-3.18,1.93-4.96,1.93s-3.41-.59-4.79-1.78c-1.25-1.08-2.62-2.21-4.3-3.54-8-6.36-16.79-11.89-26.1-16.43-22.18-10.81-47.09-16.28-74.05-16.28-35.2,0-72.23,9.48-107.1,27.41-35.67,18.34-67.6,44.84-92.36,76.64-1.39,1.78-3.52,2.83-5.78,2.83H60.4Z"/>
    <path class="st16" d="M109.51,208.23h25.24c71.82-92.24,194.96-132.5,282.5-89.85,10.06,4.9,19.2,10.72,27.45,17.28,1.54,1.22,3.05,2.46,4.53,3.73-14.97-20.65-35.06-37.85-60.14-50.07-8.91-4.34-18.16-7.91-27.66-10.74-12.7-3.78-25.85-6.24-39.29-7.42-92.15-8.14-197.63,43.22-259.72,133.98-.7,1.02-1.33,2.06-2.02,3.08h49.11ZM114.81,197.27c3.09-4.68,7.38-9.9,12.7-15.45-5.32,5.55-9.61,10.78-12.7,15.45h0Z"/>
    <path class="st16" d="M387.97,372.71c-.08,0-.15,0-.23,0-11.99-.06-22.9-2.05-32.43-5.94-9.78-3.99-18.16-9.64-24.93-16.78-6.76-7.13-11.97-15.76-15.49-25.64-3.45-9.71-5.2-20.55-5.2-32.23s1.75-22.49,5.21-32.11c3.54-9.82,8.82-18.33,15.7-25.29,6.84-6.92,15.25-12.39,24.99-16.26,9.66-3.83,20.73-5.77,32.9-5.77h74.53c3.46,0,6.44,2.42,7.17,5.8l10.68,49.92c.46,2.16-.08,4.42-1.47,6.14-1.39,1.72-3.49,2.72-5.7,2.72h-89.55c-4.88,0-8.43,1.25-10.84,3.82-2.53,2.7-3.77,6.41-3.77,11.33,0,1.08.07,2.14.23,3.26.03.2.05.41.06.61.18,3.62.61,7.3,1.27,10.98h95.63c3.46,0,6.44,2.42,7.17,5.8l6.79,31.75.03.11c.05.18.09.35.13.54.42,1.82.13,3.74-.82,5.35l-10.71,18.29c-1.32,2.24-3.72,3.62-6.32,3.62h-75Z"/>
    <path class="st16" d="M384.13,269.93h89.55l-10.68-49.92h-74.53c-11.3,0-21.36,1.75-30.19,5.25-8.83,3.5-16.33,8.36-22.48,14.6-6.15,6.23-10.82,13.77-14.01,22.62-3.18,8.85-4.78,18.73-4.78,29.63s1.6,20.82,4.78,29.77c3.19,8.95,7.82,16.64,13.9,23.06,6.08,6.42,13.54,11.43,22.37,15.03,8.76,3.57,18.72,5.36,29.89,5.4,0,0,0,0,.01,0h75l10.71-18.29c-.05-.24-.12-.45-.17-.69l-6.8-31.81h-99.1c-.85,0-1.68-.03-2.49-.09-1.42-5.84-2.33-11.85-2.63-17.85-.18-1.35-.29-2.76-.29-4.25,0-6.81,1.92-12.26,5.76-16.35,3.84-4.09,9.23-6.13,16.18-6.13Z"/>
    <path class="st16" d="M193.83,375.11c-3.11,0-6.04-.21-8.73-.63-3.2-.5-6.23-1.56-9.02-3.16-2.65-1.51-5.25-3.62-7.7-6.26-2.43-2.61-4.68-5.93-6.88-10.16l-19.53-36.68c-2.6-4.91-4.95-9.39-6.99-13.32-1.56-3-3.04-5.83-4.42-8.43-1.55,6.08-3.3,12.86-5.23,20.18l-13.7,50.66c-.86,3.2-3.76,5.42-7.07,5.42h-44.1c-2.31,0-4.48-1.09-5.87-2.94-1.38-1.85-1.81-4.24-1.16-6.46l37.58-127.73c2.51-8.42,6.81-14.81,12.81-19.02,5.87-4.13,12.47-6.22,19.64-6.22s13.61,1.82,18.82,5.42c4.91,3.39,8.98,8.02,12.13,13.76l23.22,41.01c3.2,5.67,5.99,10.64,8.38,14.91,2.31,4.13,4.44,7.99,6.34,11.48.8,1.47,1.57,2.9,2.29,4.29.69-1.32,1.42-2.7,2.18-4.12,1.82-3.42,3.97-7.32,6.4-11.58l.03-.05c1.13-3.4,2.97-6.65,5.49-9.68l2.83-5.02,23.24-41.27c3.13-5.56,7.18-10.13,12.03-13.57,5.22-3.71,11.66-5.59,19.12-5.59s13.77,2.1,19.57,6.25c5.89,4.21,10.15,10.59,12.65,18.96,0,.02,36.73,127.8,36.73,127.8.64,2.21.2,4.59-1.19,6.43s-3.55,2.92-5.85,2.92h-44.75c-3.31,0-6.21-2.22-7.07-5.42l-6.2-22.92c-5.72-6.57-14.86-14.09-27.31-15.19-.83-.07-1.68-.12-2.52-.13l-13.85,25.85c-2.21,4.23-4.45,7.55-6.87,10.15-2.45,2.63-5.04,4.74-7.7,6.26-2.8,1.6-5.83,2.66-9.02,3.16-2.7.42-5.64.63-8.74.63ZM256.9,296.59c-.94,1.89-1.96,3.92-3.07,6.1,1.52-.16,3.05-.26,4.59-.31-.54-2.02-1.05-3.95-1.52-5.79Z"/>
    <path class="st16" d="M291.14,237.66c-2.03-6.8-5.32-11.84-9.88-15.1-4.56-3.26-9.67-4.89-15.31-4.89-5.94,0-10.9,1.41-14.88,4.24-3.98,2.82-7.28,6.55-9.88,11.19l-23.24,41.27c-1.11,1.96-2.17,3.84-3.18,5.63-2.2,2.53-3.87,5.36-4.77,8.42-.14.24-.28.49-.41.73-2.39,4.2-4.49,8-6.3,11.4-1.81,3.4-3.4,6.45-4.78,9.12-1.38,2.68-2.64,5.32-3.8,7.93-1.3-2.61-2.64-5.28-4.02-8.04-1.38-2.75-2.97-5.79-4.78-9.12-1.81-3.33-3.91-7.13-6.3-11.4-2.39-4.27-5.18-9.23-8.36-14.88l-23.24-41.06c-2.61-4.78-5.9-8.54-9.88-11.3-3.98-2.75-8.87-4.13-14.66-4.13s-10.79,1.63-15.42,4.89c-4.64,3.26-7.97,8.29-9.99,15.1l-14.8,50.3-22.78,77.43h44.1l13.69-50.61c2.17-8.25,4.05-15.53,5.65-21.83,1.58-6.25,2.94-12.25,4.1-18.01,0-.04.02-.09.03-.13,1.16,2.46,2.35,5,3.58,7.6,1.23,2.61,2.68,5.47,4.34,8.58,1.66,3.12,3.51,6.62,5.54,10.54,2.03,3.91,4.34,8.33,6.95,13.25l19.55,36.71c1.88,3.62,3.8,6.48,5.76,8.58,1.95,2.1,3.94,3.73,5.97,4.89,2.03,1.16,4.2,1.92,6.52,2.28,2.31.36,4.85.54,7.6.54s5.28-.18,7.6-.54c2.31-.36,4.49-1.12,6.52-2.28,2.03-1.16,4.02-2.79,5.97-4.89,1.95-2.1,3.87-4.96,5.76-8.58l15.85-29.58c2.39-.21,4.95-.25,7.65-.01,15.97,1.42,27.1,11.47,33.31,19l6.62,24.49h44.75l-36.71-127.73ZM252.57,310.23c-4.64.68-8.87,1.93-12.69,3.5,4.61-8.84,8.39-16.21,11.29-22.09,3.01-6.08,5.73-11.63,8.17-16.66.03-.06.06-.12.08-.17,1.16,5.94,2.53,12.02,4.13,18.25,1.29,5.06,2.83,10.8,4.6,17.19-5.19-.74-10.42-.77-15.59-.02Z"/>
    <path class="st16" d="M65.51,414.55c-4.05,0-7.33-3.28-7.33-7.33v-2.05c0-2.81,1.6-5.3,3.99-6.52l3.62-14.68c-1.21-1.31-1.94-3.06-1.94-4.97v-2.07c0-4.05,3.28-7.33,7.33-7.33h10.74c12.3,0,16.67,7.93,16.67,14.72,0,5.01-2.24,9.69-6.14,12.84-2.5,2.03-5.79,3.3-9.65,3.75.78,1.1,1.27,2.42,1.35,3.84l.12,2.06c.11,2.01-.61,3.98-1.99,5.45-1.38,1.46-3.31,2.29-5.33,2.29h-11.43Z"/>
    <path class="st16" d="M76.47,393.55c.83.15,1.76.21,3.13.21,3.54,0,6.39-.8,8.23-2.3,2.17-1.76,3.42-4.36,3.42-7.14,0-4.77-3.32-7.39-9.34-7.39h-10.74v2.07l.64.08c2.28.3,2.28.58,2.28,1.15s-.06,1.01-.66,3.35l-4.62,18.76c-.66,2.43-.7,2.44-2.67,2.74l-.62.09v2.05h11.43l-.12-2.06-.58-.09q-2.13-.33-2.13-1.41c0-.35.05-.59.38-1.98l1.98-8.13ZM79.74,380.41c.14-.52.27-.72,1.13-.72,1.43,0,2.8.35,3.49.89.86.68,1.24,1.84,1.24,3.74,0,2.58-.76,4.32-2.33,5.31h0c-1.13.72-2.6,1.02-4.91,1.02-.49,0-.71,0-1.21-.07l2.59-10.16Z"/>
    <path class="st16" d="M95.19,415.03c-7.03,0-12.12-5.42-12.12-12.89,0-5.14,2.04-10.68,5.59-15.22,3.96-5.06,9.12-7.95,14.15-7.95,1.01,0,1.99.12,2.93.35l2.56-.32c.3-.04.6-.06.9-.06,1.07,0,2.14.24,3.11.69l.99.46c3.06,1.44,4.74,4.78,4.07,8.09l-.11.56c-.11.54-.2.87-.3,1.22l-.06.21c-.58,2.21-1.1,4.29-1.56,6.16l.5.5c2.6,2.6,2.87,6.72.63,9.64l-.39.51c-3.01,3.93-6.12,7.99-12.06,7.99-1.45,0-2.8-.28-4-.79-1.41.52-3,.84-4.81.84Z"/>
    <path class="st16" d="M104,407.66c2.03,0,3.15-1.09,6.24-5.12l.39-.51-1.49-1.49-.51.6c-.41.48-.66.74-.87.96-.1.1-.18.19-.27.29h0c-.73.83-1.14,1.23-1.36,1.41.25-1.63,1.85-8.52,3.69-15.54l.09-.31c.06-.22.1-.35.16-.65l.11-.56-.99-.46-2.95.36-.44.48-.06.3c-.71-.72-1.72-1.12-2.93-1.12-5.8,0-12.41,8.44-12.41,15.84,0,3.43,1.84,5.56,4.8,5.56,2.63,0,4.4-1.25,6.62-4.13-.11.62-.13,1-.13,1.57,0,2.08,1.26,2.52,2.32,2.52ZM99.81,402.41c-.85,1.01-2.01,1.66-2.95,1.66-1.47,0-1.62-1.74-1.62-2.49,0-2.27,1.51-6.65,3.23-9.36,1.43-2.21,3.05-3.51,4.37-3.51.05,0,.1,0,.15,0,.97.06,1.55.78,1.55,1.93,0,3.51-2.03,8.57-4.73,11.77Z"/>
    <path class="st16" d="M116.44,415.34c-5.47,0-8.42-4.65-8.42-9.02,0-.07-.01-.1.04-.89v-.11c0-1.05-.33-7.24-.51-8.88-.02-.15-.03-.29-.04-.42-.57-.29-1.1-.65-1.58-1.09-1.54-1.39-2.41-3.36-2.41-5.43v-2c0-3.61,2.63-6.69,6.2-7.24l.62-.1c1.02-.16,2.71-.52,3.34-.67,1.29-.42,2.43-.52,3.2-.52,1.6,0,3.05.38,4.29,1.1,1.34-.7,2.88-1.1,4.52-1.1,5.67,0,10.29,4.77,10.29,10.63s-4.36,12.6-8.02,17.26c-3.91,4.93-6.72,8.48-11.52,8.48Z"/>
    <path class="st16" d="M116.44,408.01c.89,0,1.88-.79,5.76-5.68,3.98-5.07,6.46-9.95,6.46-12.73,0-1.79-1.36-3.3-2.96-3.3-1.34,0-2.24.91-2.24,2.25,0,.94.32,1.61,1.17,2.43.51.52.51.65.51.8,0,1.78-2.03,5.77-5.48,9.81-.23-4.99-.41-7.06-.92-10.06q-.86-5.23-1.84-5.23c-.16,0-.59.02-1.07.21-.61.17-2.97.67-4.34.89l-.62.1v2l.8-.08c.4-.04.82-.04,1.12-.04.99,0,1.45.25,2.07,6.28.2,1.8.55,8.28.55,9.64v.38c-.04.61-.04.61-.04.66,0,1.39.59,1.69,1.09,1.69Z"/>
    <path class="st16" d="M137.09,390.33c-5.59,0-9.97-4.53-9.97-10.32s4.4-10.45,10.01-10.45,10.05,4.71,10.05,10.5-4.53,10.28-10.09,10.28Z"/>
    <path class="st16" d="M139.85,380.05c0-1.72-1.25-3.17-2.72-3.17-1.55,0-2.68,1.31-2.68,3.13s1.09,2.99,2.64,2.99,2.76-1.35,2.76-2.95Z"/>
    <path class="st16" d="M132.06,415.03c-5.73,0-9.89-4.43-9.89-10.54,0-1.96.45-4.01,1.22-6.89l.96-3.75c-.89-1.21-1.42-2.71-1.42-4.34v-2.08c0-3.81,2.93-6.99,6.73-7.3l.67-.06c1.13-.09,1.76-.21,5.6-.97l.33-.06c.46-.09.93-.13,1.4-.13,1.54,0,3.05.49,4.32,1.41l.78.57c2.43,1.77,3.53,4.85,2.78,7.75l-1.99,7.7.35.35c2.4,2.42,2.82,6.16,1.01,9.05l-.31.49c-1.78,2.85-5.49,8.79-12.53,8.79Z"/>
    <path class="st16" d="M132.52,391.48l-2.04,7.99c-.71,2.62-.98,4.03-.98,5.02,0,2.01.96,3.21,2.56,3.21,2.17,0,3.88-1.45,6.32-5.35l.31-.49-1.54-1.55-.5.71c-1.05,1.5-1.26,1.75-1.61,2.15-.55.6-.89.84-1.04.93.03-.42.19-1.03.36-1.62l.06-.2c.08-.24.16-.53.23-.79l3.79-14.68-.78-.57-.31.06c-3.97.78-4.86.95-6.42,1.08l-.67.06v2.08h.71c1.09.04,1.72.1,1.83.16,0,0,.01.05,0,.22,0,.32-.13.9-.29,1.58Z"/>
    <path class="st16" d="M152.8,414.94c-1.86,0-3.78-.5-5.42-1.52-1.14.72-2.49,1.13-3.91,1.13h-4.52c-2.27,0-4.4-1.05-5.79-2.84s-1.87-4.12-1.3-6.32l2.91-11.29c-.89-1.22-1.42-2.72-1.42-4.33v-2c0-3.5,2.48-6.52,5.92-7.19l.59-.12c3.44-.68,4.21-.83,6.34-1.31l.33-.07c.53-.12,1.06-.17,1.59-.17,1.01,0,2.02.21,2.94.62,1.12-.36,2.33-.56,3.63-.56,5.99,0,10.69,4.71,10.69,10.71,0,1.31-.22,2.83-.64,4.53l-.52,2.01.64.69c2.32,2.53,2.57,6.34.6,9.15l-.34.48c-2.62,3.74-5.87,8.4-12.3,8.4Z"/>
    <path class="st16" d="M150.89,401.05c-.62,2.53-.7,2.92-.7,3.44,0,.77,0,3.13,2.6,3.13,2.25,0,3.49-1.25,6.3-5.28l.34-.48-1.55-1.69-.53.71c-1.63,2.19-2.31,3.05-2.67,3.17,0-.18.05-.36.57-2.51l2.35-9.11c.16-.63.42-1.82.42-2.75,0-1.96-1.41-3.39-3.36-3.39-2.27,0-4.41,1.64-7.28,5.79l1.5-5.26-.8-.58-.32.07c-2.18.49-3.03.66-6.52,1.35l-.59.12v2l.7.03c1.54.07,1.79.24,1.83.29,0,0,.02.04.02.2,0,.33,0,.38-.06.56l-4.22,16.37h4.52l.15-.53c1.94-6.92,2.28-7.83,4.07-10.76,3.17-5.34,4.83-5.92,5.39-5.92.2,0,.23.33.23.53,0,.43-.22,1.73-.58,3.18l-1.84,7.32Z"/>
    <path class="st16" d="M165.8,423.65c-8.6,0-14.84-5.48-14.84-13.02,0-4.16,1.73-6.91,3.8-8.95.12-.87.34-1.67.63-2.4-.51-1.42-.76-2.99-.76-4.68,0-8.62,7.28-15.64,16.23-15.64,2.39,0,4.69.54,6.75,1.57h1.1c1.97,0,3.86.8,5.24,2.21,1.38,1.41,2.13,3.32,2.09,5.29l-.07,3.2c-.04,1.95-.85,3.71-2.12,4.99-.61,2.25-1.79,4.35-3.36,6.13,1.59,2.62,1.87,5.23,1.87,6.76,0,8.43-6.96,14.55-16.55,14.55Z"/>
    <path class="st16" d="M178.7,387.86h-3.14s-.12-.07-.26-.18l-.04-.03c-1.28-.9-2.76-1.35-4.41-1.35-4.91,0-8.9,3.73-8.9,8.31,0,2.21.74,3.63,2.57,4.83-1.71,1.35-2.53,2.34-2.53,3.62,0,.67.28,1.2.67,1.65-3.43,2.46-4.38,3.59-4.38,5.93,0,3.46,2.95,5.7,7.51,5.7,5.52,0,9.22-2.9,9.22-7.22,0-3.08-2.12-5.27-6.32-6.5-1.74-.48-2.22-1.02-2.25-1.13,0-.28.54-1.02.77-1.1l.08.02c.4.1.93.15,1.45.15,4.07,0,8.23-3.93,8.23-7.79,0-.52-.05-1.09-.16-1.71h1.82l.07-3.2ZM171.13,410.46c0,1.97-2.05,3.45-4.77,3.45s-4.37-1.32-4.37-3.71c0-.96.2-1.57.74-2.28.42-.58,1.53-1.53,2.01-1.85l1.1.37c4.47,1.57,5.29,2.58,5.29,4.02ZM171.13,395.79h0c-.55,1.1-1.49,2.4-2.9,2.4s-1.66-1.59-1.66-2.54c0-3.63,2.03-6.94,4.25-6.94.45,0,1.5,0,1.5,2.36,0,1.5-.46,3.31-1.19,4.71Z"/>
    <path class="st16" d="M212.28,415.34c-2.33,0-4.45-.52-6.4-1.58-2.23,1.08-4.37,1.58-7.2,1.58-8.97,0-15.47-6.32-15.47-15.03,0-4.67,1.81-8.74,5.39-12.07.02-.02.04-.04.07-.06,1.32-1.2,2.73-2.18,4.46-3.16.41-9.32,6.35-15.98,14.41-15.98,6.75,0,12.24,5.49,12.24,12.24,0,.59-.04,1.24-.15,1.94,3.14.83,5.45,3.69,5.45,7.09v2.1c0,2.18-.96,4.17-2.51,5.52l1.25,1.37c2.42,2.65,2.57,6.66.35,9.48l-.38.49c-3.22,4.09-6.99,6.08-11.52,6.08Z"/>
    <path class="st16" d="M190.54,400.31c0,4.6,3.27,7.7,8.15,7.7,2.63,0,3.97-.52,7.86-3.22,1.82,2.28,3.51,3.22,5.74,3.22s3.92-.95,5.76-3.28l.38-.49-1.32-1.44-.53.43c-1.2.97-1.66,1.14-2.37,1.14-1.33,0-2.5-.58-4.13-3.38l.72-1.09c1.52-2.32,2.09-3.19,3.04-4.74.68-1.11,1.12-1.72,1.47-2.03.44-.35.68-.46,1.84-.63l.62-.09v-2.1h-8.95v2.21l.65.07c1.42.15,1.42.3,1.42.76,0,1.05-.34,2.01-2.32,4.74-1.07-2.18-2.1-5.27-2.9-8.76,2.23-1.22,3.39-2.04,4.47-3.13,1.54-1.54,2.33-3.2,2.33-4.92,0-2.75-2.16-4.91-4.92-4.91-4.19,0-7.11,3.99-7.11,9.7,0,.6.04,1.1.2,2.4,0,.13.02.33.05.57,0,.1.02.21.03.33-3.91,1.86-5.67,2.91-7.11,4.22-2.09,1.95-3.06,4.08-3.06,6.72ZM207.14,379.21c.45,0,1.07,0,1.07,1.84,0,2.13-.45,3.31-2.94,5.2-.07-.75-.1-1.42-.1-2.2,0-4.85,1.39-4.85,1.98-4.85ZM201.12,392.27c1.27,4.67,2.55,8.07,3.83,10.13-1.55,1.29-2.97,1.84-4.66,1.84-2.56,0-4.49-2.18-4.49-5.06,0-2.65,2.07-5.3,5.33-6.91Z"/>
    <path class="st16" d="M239.43,415.34c-1.67,0-3.13-.24-4.57-.66-.85.34-1.77.53-2.73.53h-2.1c-2.11,0-4.11-.91-5.51-2.49-1.39-1.58-2.03-3.69-1.76-5.78l1.47-11.37c.32-2.5,1.87-4.54,3.97-5.6-.64-1.65-.98-3.45-.98-5.59,0-8.74,6.53-15.33,15.19-15.33,1.41,0,2.78.15,4.06.44.83-.32,1.72-.49,2.63-.49h2.19c2.16,0,4.21.95,5.61,2.61,1.39,1.65,1.98,3.84,1.61,5.97l-1.79,10.33c-.3,1.72-1.17,3.19-2.38,4.26.82,1.91,1.23,3.95,1.23,6.37,0,9.43-7.09,16.81-16.15,16.81Z"/>
    <path class="st16" d="M243.26,379.3c1.28,0,2.27.44,3.02,1.34.77.95,1.08,2.32,1.16,5.05l.02.6,2.06.36,1.79-10.33h-2.19l-.21.35c-.46.76-.61.78-1.21.78-.36,0-.67-.06-1.55-.42-1.01-.43-2.33-.67-3.72-.67-4.56,0-7.87,3.37-7.87,8,0,2.61.68,4.07,3.3,7.07.08.09.87.99,1.57,1.8.31.38.63.76.9,1.07.31.36.54.64.6.72l.08.11c1.94,2.16,2.29,3.12,2.29,4.74,0,2.96-1.86,5.11-4.41,5.11-2.99,0-5.25-2.87-5.25-6.68,0-.28,0-.48.06-.75l.18-.8-2.36-.25-1.47,11.37h2.1l.15-.53c.25-.9.53-.9.85-.9s.89.18,1.81.52c1.99.79,3.13,1.05,4.49,1.05,5.03,0,8.82-4.08,8.82-9.48,0-3.1-.99-4.98-4.82-9.16-3.77-4.07-3.87-4.49-3.87-6.34,0-2.36,1.35-3.71,3.7-3.71Z"/>
    <path class="st16" d="M256.5,415.03c-7.62,0-13.36-6.03-13.36-14.02,0-11.12,10.07-22.04,20.34-22.04,6.41,0,11.25,4.74,11.25,11.02,0,2.96-.99,5.74-2.76,8.14,1.78,2.65,1.65,6.21-.43,8.73l-.4.49c-4.01,4.88-9.34,7.69-14.64,7.69Z"/>
    <path class="st16" d="M256.37,398.81c6.49-.97,11.03-4.6,11.03-8.82,0-2.24-1.54-3.69-3.92-3.69-6.2,0-13.01,7.7-13.01,14.71,0,3.94,2.48,6.7,6.03,6.7,3.09,0,6.36-1.83,8.98-5.01l.4-.49-1.43-1.57-.54.48c-3,2.69-4.06,3.12-5.45,3.12-1.86,0-3.02-1.24-3.02-3.23,0-.53.05-.88.31-2.1l.62-.1ZM256.82,395.59h0c1.37-3.85,4.23-6.84,5.77-6.84.6,0,.67.65.67.93,0,1.24-.68,2.68-1.83,3.85-1.2,1.24-2.39,1.92-4.84,2.67l.22-.61Z"/>
    <path class="st16" d="M272.37,415.03c-7.03,0-12.12-5.42-12.12-12.89,0-5.14,2.04-10.68,5.59-15.22,3.96-5.06,9.12-7.95,14.15-7.95,1.01,0,1.99.12,2.93.35l2.56-.32c.3-.04.6-.06.9-.06,1.07,0,2.14.24,3.11.69l.99.46c3.06,1.44,4.74,4.78,4.07,8.1l-.11.56c-.11.53-.2.87-.3,1.22l-.06.21c-.58,2.21-1.1,4.29-1.56,6.16l.5.5c2.6,2.6,2.86,6.72.63,9.63l-.39.51c-3.01,3.93-6.12,7.99-12.06,7.99-1.45,0-2.8-.28-4-.79-1.41.52-3,.84-4.81.84Z"/>
    <path class="st16" d="M281.18,407.66c2.03,0,3.15-1.09,6.24-5.12l.39-.51-1.49-1.49-.51.6c-.41.48-.66.74-.87.96-.1.1-.18.19-.27.29h0c-.73.83-1.14,1.23-1.36,1.41.25-1.63,1.85-8.52,3.69-15.54l.09-.31c.06-.22.1-.35.16-.65l.11-.56-.99-.46-2.95.36-.44.48-.06.3c-.71-.72-1.72-1.12-2.93-1.12-5.8,0-12.41,8.44-12.41,15.84,0,3.43,1.84,5.56,4.8,5.56,2.63,0,4.4-1.25,6.62-4.13-.11.62-.13,1-.13,1.57,0,2.08,1.26,2.52,2.32,2.52ZM276.99,402.41c-.85,1.01-2.01,1.66-2.95,1.66-1.47,0-1.62-1.74-1.62-2.49,0-2.27,1.51-6.65,3.23-9.36,1.43-2.21,3.05-3.51,4.37-3.51.05,0,.1,0,.15,0,.97.06,1.55.78,1.55,1.93,0,3.51-2.03,8.57-4.73,11.77Z"/>
    <path class="st16" d="M291.42,415.03c-4.97,0-10.01-3.61-10.01-10.5,0-1.02.14-2.07.4-3.13l4.43-17.98c-.95-1.24-1.52-2.79-1.52-4.47v-2.07c0-3.69,2.75-6.81,6.42-7.27l.64-.08c2.01-.25,3.16-.47,5.35-1.03l.52-.13c.6-.15,1.21-.23,1.81-.23,2.51,0,4.9,1.3,6.26,3.52l.6.98c1.01,1.66,1.32,3.66.86,5.55l-4.21,17.19c3.05,2.27,3.86,6.52,1.83,9.76l-.37.59c-2.32,3.71-5.83,9.31-13.01,9.31Z"/>
    <path class="st16" d="M293.63,402.63l.11-.12v-.28l6.24-25.48.07-.29-.6-.98-.52.13c-2.48.63-3.94.91-6.25,1.2l-.64.08v2.07h1.41c.96,0,1.31.24,1.34.27,0,.06-.01.24-.14.65l-5.74,23.3c-.12.48-.18.94-.18,1.35,0,2.86,1.88,3.17,2.68,3.17,2.67,0,4.26-1.81,6.8-5.87l.37-.59-1.72-1.21-.42.59c-2.16,3.05-2.69,3.65-3.14,3.73,0-.02,0-.05,0-.09,0-.32.17-1.02.3-1.54,0-.04.02-.07.02-.1Z"/>
    <path class="st16" d="M305.98,415.03c-8.2,0-13.92-6-13.92-14.59,0-11.44,9.28-21.47,19.86-21.47,6.89,0,12.28,5.11,12.28,11.63,0,2.99-1.29,5.68-3.33,7.53.52.81.88,1.73,1.05,2.7.34,1.95-.13,3.96-1.29,5.56l-.44.61c-2.5,3.45-6.69,8.03-14.22,8.03ZM311.65,400.61"/>
    <path class="st16" d="M311.91,390.99c0,1.45.91,2.38,2.32,2.38,1.48,0,2.64-1.22,2.64-2.78,0-2.45-2.13-4.3-4.96-4.3-6.56,0-12.53,6.74-12.53,14.15,0,4.55,2.46,7.26,6.59,7.26,3.31,0,5.71-1.45,8.29-5.01l.44-.61-1.79-1.22-.43.49c-2.1,2.42-3.52,3.32-5.23,3.32-2.56,0-2.94-2.65-2.94-4.24,0-3.61,1.37-7.4,3.56-9.88,1.06-1.2,2.46-1.89,3.84-1.89.56,0,.76.14.79.19,0,.07,0,.15-.16.5-.32.66-.43,1.07-.43,1.63Z"/>
    <path class="st16" d="M322.96,415.03c-8.09,0-13.96-5.97-13.96-14.2,0-7.47,4.44-15.19,11.05-19.21,3-1.8,5.99-2.65,9.17-2.65,7.87,0,13.8,6.1,13.8,14.2,0,5.3-2.43,11.08-6.5,15.46-5.02,5.3-10.14,6.41-13.56,6.41Z"/>
    <path class="st16" d="M322.96,407.7c2.88,0,5.63-1.37,8.19-4.07,2.8-3.01,4.54-7.03,4.54-10.47,0-4.05-2.66-6.87-6.47-6.87-1.85,0-3.55.5-5.36,1.59-4.43,2.7-7.53,8.02-7.53,12.95,0,4.24,2.54,6.87,6.63,6.87ZM324.29,392.16c1.01-1.59,2.59-3.49,4.45-3.49,1.55,0,2.1,1.74,2.1,3.36,0,3.1-1.31,7.38-3.11,10.19h0c-1.33,2.12-2.65,3.11-4.17,3.11-1.42,0-2.38-1.28-2.38-3.19,0-3.13,1.19-6.95,3.12-9.98Z"/>
    <path class="st16" d="M341.02,415.03c-7.03,0-12.12-5.42-12.12-12.89,0-5.14,2.04-10.68,5.59-15.22,3.96-5.06,9.12-7.95,14.15-7.95,1.01,0,1.99.12,2.93.35l2.56-.32c.3-.04.6-.06.9-.06,1.07,0,2.14.24,3.12.7l.99.46c3.06,1.44,4.74,4.78,4.07,8.09l-.11.56c-.11.54-.2.87-.3,1.22l-.06.21c-.58,2.21-1.1,4.29-1.56,6.16l.5.5c2.6,2.6,2.86,6.72.63,9.63l-.39.51c-3.01,3.93-6.12,7.99-12.06,7.99-1.45,0-2.8-.28-4-.79-1.41.52-3,.84-4.81.84Z"/>
    <path class="st16" d="M349.83,407.66c2.03,0,3.15-1.09,6.24-5.12l.39-.51-1.49-1.49-.51.6c-.4.47-.66.74-.87.95-.1.1-.19.19-.27.29h0c-.73.83-1.14,1.23-1.36,1.41.25-1.63,1.85-8.52,3.69-15.54l.09-.31c.06-.22.1-.35.16-.65l.11-.56-.99-.46-2.95.36-.44.48-.06.3c-.71-.72-1.72-1.12-2.93-1.12-5.8,0-12.41,8.44-12.41,15.84,0,3.43,1.84,5.56,4.8,5.56,2.63,0,4.4-1.25,6.62-4.13-.11.62-.13,1-.13,1.57,0,2.08,1.26,2.52,2.32,2.52ZM345.65,402.41c-.85,1.01-2.01,1.66-2.95,1.66-1.47,0-1.62-1.74-1.62-2.49,0-2.27,1.51-6.65,3.23-9.36,1.43-2.21,3.05-3.51,4.37-3.51.05,0,.1,0,.15,0,.97.06,1.55.78,1.55,1.93,0,3.51-2.03,8.57-4.73,11.77Z"/>
    <path class="st16" d="M359.6,415.03c-5.59,0-9.97-4.27-9.97-9.71,0-1.11.12-1.73,1.19-6.09l1.25-5.09c-.93-1.23-1.48-2.76-1.48-4.42v-.99c0-1.83.62-6.32,6.3-8.6.44-.35,1.24-1.12,1.85-1.99.05-.08.11-.15.16-.22,2.26-2.98,5.01-3.6,6.92-3.6h.2c4.26,0,7.67,3.12,8.22,7.3.15.15.29.3.43.46,1.39,1.61,2.02,3.74,1.72,5.84l-.41,2.85c-.36,2.54-2,4.62-4.21,5.63.83.9,1.44,2,1.74,3.22.47,1.91.16,3.94-.88,5.61l-.39.63c-2.12,3.43-5.66,9.18-12.64,9.18Z"/>
    <path class="st16" d="M368.73,389.71l.41-2.85h-3.13l.92-3.61c.07-.23.07-.39.07-.46,0-.8-.5-1.16-.97-1.16h-.2c-.54,0-.85.41-1.08.7-1.59,2.28-3.96,4.28-5.01,4.55l-.09.03c-.92.36-1.74.77-1.74,1.81v.99h2.79l-2.77,11.25c-.98,4-.98,4.21-.98,4.35,0,1.36,1.14,2.38,2.64,2.38,2.21,0,3.71-1.33,6.4-5.7l.39-.63-1.74-1.02-.39.54c-.57.79-1.99,2.79-2.57,3.13l3.54-14.3h3.49Z"/>
    <path class="st16" d="M376.31,390.33c-5.59,0-9.97-4.53-9.97-10.32s4.4-10.45,10.01-10.45,10.05,4.71,10.05,10.5-4.53,10.28-10.09,10.28Z"/>
    <path class="st16" d="M379.07,380.05c0-1.72-1.25-3.17-2.72-3.17-1.55,0-2.68,1.31-2.68,3.13s1.09,2.99,2.64,2.99,2.76-1.35,2.76-2.95Z"/>
    <path class="st16" d="M371.28,415.03c-5.73,0-9.89-4.43-9.89-10.54,0-1.96.45-4.01,1.22-6.89l.96-3.75c-.89-1.21-1.42-2.71-1.42-4.34v-2.08c0-3.81,2.93-6.99,6.73-7.3l.67-.06c1.13-.09,1.76-.21,5.6-.97l.33-.06c.46-.09.93-.13,1.4-.13,1.54,0,3.05.49,4.32,1.41l.78.57c2.43,1.77,3.53,4.85,2.78,7.75l-1.99,7.7.35.35c2.4,2.42,2.82,6.16,1.01,9.05l-.31.49c-1.78,2.85-5.49,8.79-12.53,8.79Z"/>
    <path class="st16" d="M371.28,407.7c2.17,0,3.88-1.45,6.32-5.35l.31-.49-1.54-1.55-.5.71c-1.05,1.5-1.26,1.75-1.61,2.15-.55.6-.89.84-1.04.93.03-.42.19-1.03.36-1.62l.06-.2c.08-.24.16-.53.23-.79l3.79-14.68-.78-.57-.31.06c-3.97.78-4.86.95-6.42,1.08l-.67.06v2.08h.71c1.09.04,1.72.1,1.83.16,0,0,.01.05,0,.22,0,.32-.13.9-.29,1.58l-2.04,7.99c-.71,2.62-.98,4.03-.98,5.02,0,2.01.96,3.21,2.56,3.21Z"/>
    <path class="st16" d="M392.02,414.94c-1.86,0-3.78-.5-5.42-1.52-1.14.72-2.49,1.13-3.91,1.13h-4.52c-2.27,0-4.4-1.05-5.79-2.84s-1.87-4.12-1.3-6.32l2.91-11.29c-.89-1.22-1.42-2.72-1.42-4.33v-2c0-3.5,2.48-6.52,5.92-7.19l.59-.12c3.44-.68,4.21-.83,6.34-1.31l.33-.07c.53-.12,1.06-.17,1.59-.17,1.01,0,2.02.21,2.94.62,1.12-.36,2.33-.56,3.63-.56,5.99,0,10.69,4.71,10.69,10.71,0,1.31-.22,2.83-.64,4.53l-.52,2.01.64.69c2.32,2.53,2.57,6.34.6,9.15l-.33.48c-2.62,3.74-5.88,8.4-12.3,8.4Z"/>
    <path class="st16" d="M390.11,401.05c-.62,2.53-.7,2.92-.7,3.44,0,.77,0,3.13,2.6,3.13,2.25,0,3.49-1.25,6.3-5.28l.34-.48-1.55-1.69-.53.71c-1.63,2.19-2.31,3.05-2.67,3.17,0-.18.05-.36.57-2.51l2.35-9.11c.16-.63.42-1.82.42-2.75,0-1.96-1.41-3.39-3.36-3.39-2.27,0-4.41,1.64-7.28,5.79l1.5-5.26-.8-.58-.32.07c-2.18.49-3.03.66-6.52,1.35l-.59.12v2l.7.03c1.54.07,1.79.24,1.83.29,0,0,.03.04.03.2,0,.33,0,.38-.06.56l-4.22,16.37h4.52l.15-.53c1.94-6.92,2.28-7.83,4.07-10.76,3.17-5.34,4.83-5.92,5.39-5.92.2,0,.23.33.23.53,0,.43-.22,1.73-.58,3.18l-1.84,7.32Z"/>
    <path class="st16" d="M405.01,423.65c-8.6,0-14.84-5.48-14.84-13.02,0-4.16,1.73-6.91,3.8-8.95.12-.87.34-1.67.63-2.4-.51-1.42-.76-2.99-.76-4.68,0-8.62,7.28-15.64,16.23-15.64,2.39,0,4.69.54,6.75,1.57h1.1c1.97,0,3.86.8,5.24,2.21,1.38,1.41,2.13,3.32,2.09,5.29l-.07,3.2c-.05,1.95-.85,3.71-2.12,4.99-.61,2.25-1.79,4.35-3.36,6.13,1.59,2.62,1.87,5.23,1.87,6.76,0,8.43-6.96,14.55-16.55,14.55Z"/>
    <path class="st16" d="M417.92,387.86h-3.14s-.12-.07-.26-.18l-.04-.03c-1.28-.9-2.76-1.35-4.41-1.35-4.91,0-8.9,3.73-8.9,8.31,0,2.21.74,3.64,2.57,4.83-1.71,1.35-2.53,2.34-2.53,3.62,0,.67.28,1.2.67,1.65-3.43,2.46-4.38,3.59-4.38,5.93,0,3.46,2.95,5.7,7.51,5.7,5.52,0,9.22-2.9,9.22-7.22,0-3.08-2.12-5.27-6.32-6.5-1.74-.48-2.22-1.02-2.25-1.13,0-.28.54-1.02.77-1.1l.08.02c.4.1.93.15,1.45.15,4.07,0,8.23-3.93,8.23-7.79,0-.52-.05-1.09-.16-1.71h1.82l.07-3.2ZM410.34,410.46c0,1.97-2.05,3.45-4.77,3.45s-4.37-1.32-4.37-3.71c0-.96.2-1.57.74-2.28.42-.58,1.53-1.53,2.01-1.85l1.1.37c4.47,1.57,5.29,2.58,5.29,4.02ZM410.35,395.79h0c-.55,1.1-1.49,2.4-2.9,2.4s-1.66-1.59-1.66-2.54c0-3.63,2.03-6.94,4.25-6.94.45,0,1.5,0,1.5,2.36,0,1.5-.46,3.31-1.19,4.71Z"/>
    <path class="st16" d="M432.08,415.03c-4.98,0-10.01-3.61-10.01-10.5,0-1.01.13-2.07.4-3.13l4.43-17.98c-.95-1.24-1.52-2.79-1.52-4.47v-2.07c0-3.69,2.75-6.81,6.42-7.27l.64-.08c2.01-.25,3.16-.47,5.35-1.03l.52-.13c.6-.15,1.21-.23,1.81-.23,2.51,0,4.9,1.3,6.26,3.51l.6.98c1.01,1.66,1.32,3.66.86,5.55l-4.21,17.19c3.05,2.27,3.86,6.52,1.83,9.76l-.37.59c-2.32,3.71-5.83,9.32-13.01,9.32Z"/>
    <path class="st16" d="M434.3,402.63l.11-.12v-.28l6.24-25.48.07-.29-.6-.98-.52.13c-2.48.63-3.94.91-6.25,1.2l-.64.08v2.07h1.41c.96,0,1.31.24,1.34.27,0,.06-.01.24-.14.65l-5.74,23.3c-.12.48-.18.94-.18,1.35,0,2.86,1.88,3.17,2.68,3.17,2.67,0,4.26-1.81,6.8-5.87l.37-.59-1.72-1.21-.42.59c-2.16,3.05-2.69,3.65-3.14,3.73,0-.02,0-.05,0-.09,0-.32.17-1.02.3-1.54,0-.04.02-.07.02-.1Z"/>
    <path class="st16" d="M443.17,415.03c-4.98,0-10.01-3.61-10.01-10.5,0-1.02.14-2.07.4-3.14l4.43-17.98c-.95-1.24-1.52-2.79-1.52-4.47v-2.07c0-3.69,2.75-6.81,6.42-7.27l.64-.08c2.01-.25,3.16-.47,5.35-1.03l.52-.13c.6-.15,1.21-.23,1.81-.23,2.51,0,4.9,1.3,6.26,3.51l.6.98c1.01,1.66,1.32,3.66.86,5.55l-4.21,17.19c3.05,2.27,3.86,6.52,1.83,9.76l-.37.59c-2.32,3.71-5.83,9.31-13.01,9.31Z"/>
    <path class="st16" d="M445.38,402.63l.11-.12v-.28l6.24-25.48.07-.29-.6-.98-.52.13c-2.48.63-3.94.91-6.25,1.2l-.64.08v2.07h1.41c.96,0,1.31.24,1.34.27,0,.06-.01.24-.14.65l-5.74,23.3c-.12.48-.18.94-.18,1.35,0,2.86,1.88,3.17,2.68,3.17,2.67,0,4.26-1.81,6.8-5.87l.37-.59-1.72-1.21-.42.59c-2.16,3.05-2.69,3.65-3.14,3.73,0-.02,0-.05,0-.09,0-.32.17-1.02.3-1.54,0-.04.02-.07.02-.1Z"/>
    <path class="st16" d="M457.72,415.03c-8.2,0-13.92-6-13.92-14.59,0-11.44,9.28-21.47,19.86-21.47,6.89,0,12.28,5.11,12.28,11.63,0,2.99-1.29,5.68-3.33,7.53.52.81.88,1.73,1.05,2.7.34,1.95-.13,3.96-1.29,5.56l-.44.61c-2.5,3.45-6.69,8.03-14.22,8.03ZM463.39,400.61"/>
    <path class="st16" d="M463.65,390.99c0,1.45.91,2.38,2.32,2.38,1.48,0,2.64-1.22,2.64-2.78,0-2.45-2.13-4.3-4.96-4.3-6.56,0-12.53,6.74-12.53,14.15,0,4.55,2.46,7.26,6.59,7.26,3.31,0,5.71-1.45,8.29-5.01l.44-.61-1.79-1.22-.43.49c-2.1,2.42-3.52,3.32-5.23,3.32-2.56,0-2.94-2.65-2.94-4.24,0-3.61,1.37-7.4,3.56-9.88,1.06-1.2,2.46-1.89,3.84-1.89.56,0,.76.14.79.19,0,.07,0,.15-.16.5-.32.66-.43,1.07-.43,1.63Z"/>
    <path class="st16" d="M200.72,531.25c-27.26,0-52.54-5.58-75.12-16.58-34.63-16.87-59.56-44.93-72.12-81.16-.78-2.24-.42-4.72.95-6.65,1.37-1.93,3.6-3.08,5.97-3.08h56.29c3.04,0,5.77,1.88,6.85,4.73,10.37,27.31,29.87,48.57,56.4,61.5,18.33,8.93,38.93,13.46,61.23,13.46,15.38,0,31.25-2.18,47.17-6.49.64-.17,1.28-.26,1.92-.26,3.03,0,5.85,1.9,6.9,4.88,1.28,3.61-.44,7.6-3.94,9.15-9.52,4.22-19.36,7.86-29.26,10.85-21.27,6.41-42.55,9.66-63.24,9.66h0Z"/>
    <path class="st16" d="M128.81,508.08c39.61,19.3,87.06,20.35,133.05,6.49,9.56-2.88,19.05-6.39,28.4-10.53-39.41,10.66-79.66,9.04-113.52-7.45-29.2-14.23-49.41-37.47-60.05-65.48h-56.29c11.44,33,34.47,60.44,68.4,76.97Z"/>
    <path class="st16" d="M231.29,571c-6.71,0-13.42-.29-19.95-.87-14.02-1.24-27.73-3.83-40.73-7.7-9.97-2.97-19.66-6.73-28.78-11.17-25.56-12.45-46.71-30.07-62.86-52.35-2.18-3.01-1.76-7.18.98-9.7,1.4-1.29,3.18-1.93,4.96-1.93s3.41.59,4.79,1.78c1.25,1.08,2.61,2.2,4.3,3.54,8,6.36,16.79,11.89,26.1,16.43,22.18,10.81,47.09,16.29,74.05,16.28,35.2,0,72.23-9.48,107.1-27.41,35.67-18.34,67.6-44.84,92.36-76.64,1.39-1.78,3.52-2.83,5.78-2.83h74.35c2.7,0,5.19,1.49,6.46,3.87,1.28,2.38,1.14,5.27-.36,7.52-.27.41-.54.82-.8,1.23-.41.64-.83,1.29-1.27,1.93-57.36,83.84-154.1,138.01-246.45,138.01h-.01Z"/>
    <path class="st16" d="M424.62,425.77h-25.24c-71.82,92.24-194.96,132.5-282.5,89.85-10.06-4.9-19.2-10.72-27.45-17.28-1.54-1.22-3.05-2.46-4.53-3.73,14.97,20.65,35.06,37.85,60.14,50.07,8.91,4.34,18.16,7.91,27.66,10.74,12.7,3.78,25.85,6.24,39.29,7.42,92.15,8.14,197.63-43.22,259.72-133.98.7-1.02,1.33-2.06,2.02-3.08h-49.11ZM143.71,528.85c1.47.52,2.94,1.03,4.41,1.51-1.47-.48-2.94-.99-4.41-1.51ZM178.46,537.4c1.88.27,3.77.52,5.65.74-1.88-.22-3.77-.47-5.65-.74ZM281,527.33c2.84-.9,5.66-1.84,8.46-2.82-2.8.98-5.62,1.92-8.46,2.82ZM419.31,436.73c-1.61,2.44-3.56,5.04-5.8,7.74,2.24-2.71,4.19-5.3,5.8-7.74h0Z"/>
  </g>
  <g>
    <g>
      <g>
        <path class="st15" d="M243.87,129.95c39.41-10.66,79.66-9.04,113.52,7.45,29.2,14.23,49.41,37.47,60.05,65.48h18.82c-18.95-49.67-77.46-105.96-192.39-72.94Z"/>
        <path class="st1" d="M436.26,202.89h36.51s.96,0,.96,0c-11.44-33-34.47-60.44-68.4-76.97-39.61-19.3-87.06-20.35-133.05-6.49-9.56,2.88-19.05,6.39-28.4,10.53,114.93-33.03,173.44,23.27,192.39,72.94Z"/>
      </g>
      <path class="st0" d="M107.67,208.23h1.84s25.24,0,25.24,0c71.82-92.24,194.96-132.5,282.5-89.85,10.06,4.9,19.2,10.72,27.45,17.28-126.69-101.81-296.76,11.45-329.89,61.6h0c-1.57,2.26-5.33,7.74-7.14,10.96ZM112.93,200.31s.02-.04.03-.05c-.01.02-.02.04-.03.05ZM111.42,203.14s0-.01,0-.02c0,0,0,.01,0,.02Z"/>
      <path class="st3" d="M107.67,208.23c1.82-3.22,5.58-8.7,7.14-10.96,33.13-50.15,203.2-163.41,329.89-61.6,1.54,1.22,3.05,2.46,4.53,3.73-14.97-20.65-35.06-37.85-60.14-50.07-8.91-4.34-18.16-7.91-27.66-10.74-12.7-3.78-25.85-6.24-39.29-7.42-92.15-8.14-197.63,43.22-259.72,133.98-.7,1.02-1.33,2.06-2.02,3.08h47.27Z"/>
    </g>
    <g>
      <g>
        <path class="st8" d="M83.23,287.96l-22.78,77.43h44.1l13.69-50.61c2.17-8.25,4.05-15.53,5.65-21.83,1.58-6.25,2.94-12.25,4.1-18.01-7.43-15.87-38.62-5.83-44.75,13.02Z"/>
        <path class="st7" d="M209.99,288.41c1.45-2.55,3.04-5.35,4.77-8.42-2.2,2.53-3.87,5.36-4.77,8.42Z"/>
        <path class="st4" d="M252.57,310.23c-14.43,2.1-24.95,9.76-30.93,15.16,4.8-2.01,12.38-4.31,21.53-3.5,24.41,2.17,37.52,24.52,39.03,27.18h39.65c-16.31-27.21-43.61-42.59-69.28-38.85Z"/>
        <path class="st6" d="M466.7,314.6h-99.1c-6.95,0-12.34-2-16.18-5.98-3-3.12-4.81-7.11-5.46-11.95,1.61,31.8,20.23,64.03,42.01,68.73h75s10.71-18.29,10.71-18.29c-.05-.24-.12-.45-.17-.69l-6.8-31.81Z"/>
        <path class="st5" d="M321.79,321.89c3.19,8.95,7.82,16.64,13.9,23.06,6.08,6.42,13.54,11.43,22.37,15.03,8.84,3.6,18.9,5.4,30.19,5.4h16.24c-21.78-4.7-40.41-36.93-42.01-68.73-.18-1.35-.29-2.76-.29-4.25,0-6.81,1.92-12.26,5.76-16.35,3.84-4.09,9.23-6.13,16.18-6.13h89.55s-10.68-49.92-10.68-49.92h-74.53c-11.3,0-21.36,1.75-30.19,5.25-8.83,3.5-16.33,8.36-22.48,14.6-6.15,6.23-10.82,13.77-14.01,22.62-3.18,8.85-4.78,18.73-4.78,29.63,0,10.9,1.6,20.82,4.78,29.77Z"/>
        <path class="st2" d="M291.14,237.66c-2.03-6.8-5.32-11.84-9.88-15.1-4.56-3.26-9.67-4.89-15.31-4.89-5.94,0-10.9,1.41-14.88,4.24-3.98,2.82-7.28,6.55-9.88,11.19l-23.24,41.27c-1.11,1.97-2.17,3.84-3.18,5.63,11.66-13.43,38.28-18.56,44.58-5.02.03-.06.06-.12.08-.17,1.16,5.94,2.53,12.02,4.13,18.25,1.59,6.23,3.55,13.47,5.87,21.72l13.69,50.61h44.75l-36.71-127.73Z"/>
        <path class="st13" d="M214.76,280c-1.73,3.06-3.32,5.87-4.77,8.42h0s0,0,0,0c-.14.24-.28.49-.41.73-2.39,4.2-4.49,8-6.3,11.4-1.81,3.4-3.4,6.45-4.78,9.12-1.38,2.68-2.64,5.32-3.8,7.93-1.3-2.61-2.64-5.28-4.02-8.04-1.38-2.75-2.97-5.79-4.78-9.12-1.81-3.33-3.91-7.13-6.3-11.4-2.39-4.27-5.18-9.23-8.36-14.88l-23.24-41.06c-2.61-4.78-5.9-8.54-9.88-11.3-3.98-2.75-8.87-4.13-14.66-4.13s-10.79,1.63-15.42,4.89c-4.64,3.26-7.97,8.29-9.99,15.1l-14.8,50.3c6.13-18.85,37.32-28.9,44.75-13.02,0-.04.02-.09.03-.13,1.16,2.46,2.35,5,3.58,7.6,1.23,2.61,2.68,5.47,4.34,8.58,1.66,3.12,3.51,6.62,5.54,10.54,2.03,3.91,4.34,8.33,6.95,13.25l19.55,36.71c1.88,3.62,3.8,6.48,5.76,8.58,1.95,2.1,3.94,3.73,5.97,4.89,2.03,1.16,4.2,1.92,6.52,2.28,2.31.36,4.85.54,7.6.54s5.28-.18,7.6-.54c2.31-.36,4.49-1.12,6.52-2.28,2.03-1.16,4.02-2.79,5.97-4.89,1.95-2.1,3.87-4.96,5.76-8.58l19.55-36.49c4.92-9.41,8.91-17.19,11.95-23.35,3.01-6.08,5.73-11.63,8.17-16.66-6.31-13.55-32.92-8.42-44.58,5.02Z"/>
      </g>
      <g>
        <path d="M81.91,376.93h-10.74v2.07l.64.08c2.28.3,2.28.58,2.28,1.15s-.06,1.01-.66,3.35l-4.62,18.76c-.66,2.43-.7,2.44-2.67,2.74l-.62.09v2.05h11.43l-.12-2.06-.58-.09q-2.13-.33-2.13-1.41c0-.35.05-.59.38-1.98l1.98-8.13c.83.15,1.76.21,3.13.21,3.54,0,6.39-.79,8.23-2.3,2.17-1.76,3.42-4.36,3.42-7.14,0-4.77-3.32-7.39-9.34-7.39ZM85.61,384.32c0,2.58-.76,4.32-2.33,5.31h0c-1.13.72-2.6,1.02-4.91,1.02-.49,0-.71,0-1.21-.07l2.59-10.16c.14-.52.27-.72,1.13-.72,1.43,0,2.8.35,3.49.89.86.68,1.24,1.84,1.24,3.74Z"/>
        <path d="M108.63,401.14c-.41.48-.66.74-.87.96-.1.1-.18.19-.27.29h0c-.73.83-1.14,1.23-1.36,1.41.25-1.63,1.85-8.52,3.69-15.54l.09-.31c.06-.22.1-.35.16-.65l.11-.56-.99-.46-2.95.36-.44.48-.06.3c-.71-.72-1.72-1.12-2.93-1.12-5.8,0-12.41,8.44-12.41,15.84,0,3.43,1.84,5.56,4.8,5.56,2.63,0,4.4-1.25,6.62-4.13-.11.62-.13,1-.13,1.57,0,2.08,1.26,2.52,2.32,2.52,2.03,0,3.15-1.09,6.24-5.12l.39-.51-1.49-1.49-.51.6ZM95.24,401.57c0-2.27,1.51-6.65,3.23-9.36,1.43-2.21,3.05-3.51,4.37-3.51.05,0,.1,0,.15,0,.97.06,1.55.78,1.55,1.93,0,3.51-2.03,8.57-4.73,11.77-.85,1.01-2.01,1.66-2.95,1.66-1.47,0-1.62-1.74-1.62-2.49Z"/>
        <path d="M125.69,386.29c-1.34,0-2.24.91-2.24,2.25,0,.94.32,1.61,1.17,2.43.51.52.51.65.51.79,0,1.78-2.03,5.77-5.48,9.81-.23-4.99-.41-7.06-.92-10.06q-.86-5.23-1.84-5.23c-.16,0-.59.02-1.07.21-.61.17-2.97.67-4.34.89l-.62.1v2l.8-.08c.4-.04.82-.04,1.12-.04.99,0,1.45.25,2.07,6.28.2,1.8.55,8.28.55,9.64v.38c-.04.61-.04.61-.04.66,0,1.39.59,1.69,1.09,1.69.89,0,1.88-.79,5.76-5.68,3.98-5.07,6.46-9.95,6.46-12.73,0-1.79-1.36-3.3-2.96-3.3Z"/>
        <path d="M137.09,383c1.5,0,2.76-1.35,2.76-2.95,0-1.72-1.25-3.17-2.72-3.17-1.55,0-2.68,1.31-2.68,3.13s1.09,2.99,2.64,2.99Z"/>
        <path d="M136.65,401.02c-1.05,1.5-1.26,1.75-1.61,2.15-.55.6-.89.84-1.04.93.03-.42.19-1.03.36-1.62l.06-.2c.08-.24.16-.53.23-.79l3.79-14.68-.78-.57-.31.06c-3.97.78-4.86.95-6.42,1.08l-.67.06v2.08h.71c1.09.04,1.72.1,1.83.16,0,0,.01.05,0,.22,0,.32-.13.9-.29,1.58l-2.04,7.99c-.71,2.62-.98,4.03-.98,5.02,0,2.01.96,3.21,2.56,3.21,2.17,0,3.88-1.45,6.32-5.35l.31-.49-1.54-1.55-.5.71Z"/>
        <path d="M159.43,401.86l-1.55-1.69-.53.71c-1.63,2.19-2.31,3.05-2.67,3.17,0-.18.05-.36.57-2.51l2.35-9.11c.16-.63.42-1.82.42-2.75,0-1.96-1.41-3.39-3.36-3.39-2.27,0-4.41,1.64-7.28,5.79l1.5-5.26-.8-.58-.32.07c-2.18.49-3.03.66-6.52,1.35l-.59.12v2l.7.03c1.54.07,1.79.24,1.83.29,0,0,.02.04.02.2,0,.33,0,.38-.06.56l-4.22,16.37h4.52l.15-.53c1.94-6.92,2.28-7.83,4.07-10.76,3.17-5.34,4.83-5.92,5.39-5.92.2,0,.23.33.23.53,0,.43-.22,1.73-.58,3.18l-1.84,7.32c-.62,2.53-.7,2.92-.7,3.44,0,.77,0,3.13,2.6,3.13,2.25,0,3.49-1.25,6.3-5.28l.34-.48Z"/>
        <path d="M175.31,387.68l-.04-.03c-1.28-.9-2.76-1.35-4.41-1.35-4.91,0-8.9,3.73-8.9,8.31,0,2.21.74,3.63,2.57,4.83-1.71,1.35-2.53,2.34-2.53,3.62,0,.67.28,1.2.67,1.65-3.43,2.46-4.38,3.59-4.38,5.93,0,3.46,2.95,5.7,7.51,5.7,5.52,0,9.22-2.9,9.22-7.22,0-3.08-2.12-5.27-6.32-6.5-1.74-.48-2.22-1.02-2.25-1.13,0-.28.54-1.02.77-1.1l.08.02c.4.1.93.15,1.45.15,4.07,0,8.23-3.93,8.23-7.79,0-.52-.05-1.09-.16-1.71h1.82l.07-3.2h-3.14s-.12-.07-.26-.18ZM170.82,388.71c.45,0,1.5,0,1.5,2.36,0,1.5-.46,3.31-1.19,4.71h0c-.55,1.1-1.49,2.4-2.9,2.4s-1.66-1.59-1.66-2.54c0-3.63,2.03-6.94,4.25-6.94ZM162.72,407.92c.42-.58,1.53-1.53,2.01-1.85l1.1.37c4.47,1.57,5.29,2.58,5.29,4.02,0,1.97-2.05,3.45-4.77,3.45s-4.37-1.32-4.37-3.71c0-.96.2-1.57.74-2.28Z"/>
        <path class="st12" d="M216.57,403.23c-1.2.97-1.66,1.14-2.37,1.14-1.33,0-2.5-.58-4.13-3.38l.72-1.09c1.52-2.32,2.09-3.19,3.04-4.74.68-1.11,1.12-1.72,1.47-2.03.44-.35.68-.46,1.84-.63l.62-.09v-2.1h-8.95v2.21l.65.07c1.42.15,1.42.3,1.42.76,0,1.05-.34,2.01-2.32,4.74-1.07-2.18-2.1-5.27-2.9-8.76,2.23-1.22,3.39-2.04,4.47-3.13,1.54-1.54,2.33-3.2,2.33-4.92,0-2.75-2.16-4.91-4.92-4.91-4.19,0-7.11,3.99-7.11,9.7,0,.6.04,1.1.2,2.4,0,.13.02.33.05.57,0,.1.02.21.03.33-3.91,1.86-5.67,2.91-7.11,4.22-2.09,1.95-3.06,4.08-3.06,6.72,0,4.6,3.27,7.7,8.15,7.7,2.63,0,3.97-.52,7.86-3.22,1.82,2.28,3.51,3.22,5.74,3.22s3.92-.95,5.76-3.28l.38-.49-1.32-1.44-.53.43ZM195.79,399.18c0-2.65,2.07-5.3,5.33-6.91,1.27,4.67,2.55,8.07,3.83,10.13-1.55,1.29-2.97,1.84-4.66,1.84-2.56,0-4.49-2.18-4.49-5.06ZM205.26,386.26c-.07-.75-.1-1.42-.1-2.2,0-4.85,1.39-4.85,1.98-4.85.45,0,1.07,0,1.07,1.84,0,2.13-.45,3.31-2.94,5.2Z"/>
        <path d="M243.26,379.3c1.28,0,2.27.44,3.02,1.34.77.95,1.08,2.32,1.16,5.05l.02.6,2.06.36,1.79-10.33h-2.19l-.21.35c-.46.76-.61.78-1.21.78-.36,0-.67-.06-1.55-.42-1.01-.43-2.33-.67-3.72-.67-4.56,0-7.87,3.37-7.87,8,0,2.61.68,4.07,3.3,7.07.08.09.87.99,1.57,1.8.31.38.63.76.9,1.07.31.36.54.64.6.72l.08.11c1.94,2.16,2.29,3.12,2.29,4.74,0,2.96-1.86,5.11-4.41,5.11-2.99,0-5.25-2.87-5.25-6.68,0-.28,0-.48.06-.75l.18-.8-2.36-.25-1.47,11.37h2.1l.15-.53c.25-.9.53-.9.85-.9s.89.18,1.81.52c1.99.79,3.13,1.05,4.49,1.05,5.03,0,8.82-4.08,8.82-9.48,0-3.1-.99-4.98-4.82-9.16-3.77-4.07-3.87-4.49-3.87-6.34,0-2.36,1.35-3.71,3.7-3.71Z"/>
        <path d="M256.37,398.81c6.49-.98,11.03-4.6,11.03-8.82,0-2.24-1.54-3.69-3.92-3.69-6.2,0-13.01,7.7-13.01,14.71,0,3.94,2.48,6.7,6.03,6.7,3.09,0,6.36-1.83,8.98-5.01l.4-.49-1.43-1.57-.54.48c-3,2.69-4.06,3.12-5.45,3.12-1.86,0-3.02-1.24-3.02-3.23,0-.53.05-.88.31-2.1l.62-.1ZM261.44,393.53c-1.2,1.24-2.39,1.92-4.84,2.67l.22-.61h0c1.37-3.85,4.23-6.84,5.77-6.84.6,0,.67.65.67.93,0,1.24-.68,2.68-1.83,3.85Z"/>
        <path d="M285.81,401.14c-.41.48-.66.74-.87.96-.1.1-.18.19-.27.29h0c-.73.83-1.14,1.23-1.36,1.41.25-1.63,1.85-8.52,3.69-15.54l.09-.31c.06-.22.1-.35.16-.65l.11-.56-.99-.46-2.95.36-.44.48-.06.3c-.71-.72-1.72-1.12-2.93-1.12-5.8,0-12.41,8.44-12.41,15.84,0,3.43,1.84,5.56,4.8,5.56,2.63,0,4.4-1.25,6.62-4.13-.11.62-.13,1-.13,1.57,0,2.08,1.26,2.52,2.32,2.52,2.03,0,3.15-1.09,6.24-5.12l.39-.51-1.49-1.49-.51.6ZM272.42,401.57c0-2.27,1.51-6.65,3.23-9.36,1.43-2.21,3.05-3.51,4.37-3.51.05,0,.1,0,.15,0,.97.06,1.55.78,1.55,1.93,0,3.51-2.03,8.57-4.73,11.77-.85,1.01-2.01,1.66-2.95,1.66-1.47,0-1.62-1.74-1.62-2.49Z"/>
        <path d="M296.45,400.63c-2.16,3.05-2.69,3.65-3.14,3.73,0-.02,0-.05,0-.09,0-.32.17-1.02.3-1.54,0-.04.02-.07.02-.1l.11-.12v-.28l6.24-25.48.07-.29-.6-.98-.52.13c-2.48.63-3.94.91-6.25,1.2l-.64.08v2.07h1.41c.96,0,1.31.24,1.34.27,0,.06-.01.24-.14.65l-5.74,23.3c-.12.48-.18.94-.18,1.35,0,2.86,1.88,3.17,2.68,3.17,2.67,0,4.26-1.81,6.8-5.87l.37-.59-1.72-1.21-.42.59Z"/>
        <path d="M311.91,390.99c0,1.45.91,2.38,2.32,2.38,1.48,0,2.64-1.22,2.64-2.78,0-2.45-2.13-4.3-4.96-4.3-6.56,0-12.53,6.74-12.53,14.15,0,4.55,2.46,7.26,6.59,7.26,3.31,0,5.71-1.45,8.29-5.01l.44-.61-1.79-1.22-.43.49c-2.1,2.42-3.52,3.32-5.23,3.32-2.56,0-2.94-2.65-2.94-4.24,0-3.61,1.37-7.4,3.56-9.88,1.06-1.2,2.46-1.89,3.84-1.89.56,0,.76.14.79.19,0,.07,0,.15-.16.5-.32.66-.43,1.07-.43,1.63Z"/>
        <path d="M329.22,386.29c-1.85,0-3.55.5-5.36,1.59-4.43,2.7-7.53,8.02-7.53,12.95,0,4.24,2.54,6.87,6.63,6.87,2.88,0,5.63-1.37,8.19-4.07,2.8-3.01,4.54-7.03,4.54-10.47,0-4.05-2.66-6.87-6.47-6.87ZM324.29,392.16c1.01-1.59,2.59-3.49,4.45-3.49,1.55,0,2.1,1.74,2.1,3.36,0,3.1-1.31,7.38-3.11,10.19h0c-1.33,2.12-2.65,3.11-4.17,3.11-1.42,0-2.38-1.28-2.38-3.19,0-3.13,1.19-6.95,3.12-9.98Z"/>
        <path d="M354.46,401.14c-.4.47-.66.74-.87.95-.1.1-.19.19-.27.29h0c-.73.83-1.14,1.23-1.36,1.41.25-1.63,1.85-8.52,3.69-15.54l.09-.31c.06-.22.1-.35.16-.65l.11-.56-.99-.46-2.95.36-.44.48-.06.3c-.71-.72-1.72-1.12-2.93-1.12-5.8,0-12.41,8.44-12.41,15.84,0,3.43,1.84,5.56,4.8,5.56,2.63,0,4.4-1.25,6.62-4.13-.11.62-.13,1-.13,1.57,0,2.08,1.26,2.52,2.32,2.52,2.03,0,3.15-1.09,6.24-5.12l.39-.51-1.49-1.49-.51.6ZM341.07,401.57c0-2.27,1.51-6.65,3.23-9.36,1.43-2.21,3.05-3.51,4.37-3.51.05,0,.1,0,.15,0,.97.06,1.55.78,1.55,1.93,0,3.51-2.03,8.57-4.73,11.77-.85,1.01-2.01,1.66-2.95,1.66-1.47,0-1.62-1.74-1.62-2.49Z"/>
        <path d="M364.27,400.89c-.57.79-1.99,2.79-2.57,3.13l3.54-14.3h3.49l.41-2.85h-3.13l.92-3.61c.07-.23.07-.39.07-.46,0-.8-.5-1.16-.97-1.16h-.2c-.54,0-.85.41-1.08.7-1.59,2.28-3.96,4.28-5.01,4.55l-.09.03c-.92.36-1.74.77-1.74,1.81v.99h2.79l-2.77,11.25c-.98,4-.98,4.21-.98,4.35,0,1.36,1.14,2.38,2.64,2.38,2.21,0,3.71-1.33,6.4-5.7l.39-.63-1.74-1.02-.39.54Z"/>
        <path d="M376.31,383c1.5,0,2.76-1.35,2.76-2.95,0-1.72-1.25-3.17-2.72-3.17-1.55,0-2.68,1.31-2.68,3.13s1.09,2.99,2.64,2.99Z"/>
        <path d="M375.87,401.02c-1.05,1.5-1.26,1.75-1.61,2.15-.55.6-.89.84-1.04.93.03-.42.19-1.03.36-1.62l.06-.2c.08-.24.16-.53.23-.79l3.79-14.68-.78-.57-.31.06c-3.97.78-4.86.95-6.42,1.08l-.67.06v2.08h.71c1.09.04,1.72.1,1.83.16,0,0,.01.05,0,.22,0,.32-.13.9-.29,1.58l-2.04,7.99c-.71,2.62-.98,4.03-.98,5.02,0,2.01.96,3.21,2.56,3.21,2.17,0,3.88-1.45,6.32-5.35l.31-.49-1.54-1.55-.5.71Z"/>
        <path d="M398.65,401.86l-1.55-1.69-.53.71c-1.63,2.19-2.31,3.05-2.67,3.17,0-.18.05-.36.57-2.51l2.35-9.11c.16-.63.42-1.82.42-2.75,0-1.96-1.41-3.39-3.36-3.39-2.27,0-4.41,1.64-7.28,5.79l1.5-5.26-.8-.58-.32.07c-2.18.49-3.03.66-6.52,1.35l-.59.12v2l.7.03c1.54.07,1.79.24,1.83.29,0,0,.02.04.02.2,0,.33,0,.38-.06.56l-4.22,16.37h4.52l.15-.53c1.94-6.92,2.28-7.83,4.07-10.76,3.17-5.34,4.83-5.92,5.39-5.92.2,0,.23.33.23.53,0,.43-.22,1.73-.58,3.18l-1.84,7.32c-.62,2.53-.7,2.92-.7,3.44,0,.77,0,3.13,2.6,3.13,2.25,0,3.49-1.25,6.3-5.28l.34-.48Z"/>
        <path d="M414.53,387.68l-.04-.03c-1.28-.9-2.76-1.35-4.41-1.35-4.91,0-8.9,3.73-8.9,8.31,0,2.21.74,3.64,2.57,4.83-1.71,1.35-2.53,2.34-2.53,3.62,0,.67.28,1.2.67,1.65-3.43,2.46-4.38,3.59-4.38,5.93,0,3.46,2.95,5.7,7.51,5.7,5.52,0,9.22-2.9,9.22-7.22,0-3.08-2.12-5.27-6.32-6.5-1.74-.48-2.22-1.02-2.25-1.13,0-.28.54-1.02.77-1.1l.08.02c.4.1.93.15,1.45.15,4.07,0,8.23-3.93,8.23-7.79,0-.52-.05-1.09-.16-1.71h1.82l.07-3.2h-3.14s-.12-.07-.26-.18ZM410.04,388.71c.45,0,1.5,0,1.5,2.36,0,1.5-.46,3.31-1.19,4.71h0c-.55,1.1-1.49,2.4-2.9,2.4s-1.66-1.59-1.66-2.54c0-3.63,2.03-6.94,4.25-6.94ZM401.94,407.92c.42-.58,1.53-1.53,2.01-1.85l1.1.37c4.47,1.57,5.29,2.58,5.29,4.02,0,1.97-2.05,3.45-4.77,3.45s-4.37-1.32-4.37-3.71c0-.96.2-1.57.74-2.28Z"/>
        <path d="M437.11,400.63c-2.16,3.05-2.69,3.65-3.14,3.73,0-.02,0-.05,0-.09,0-.32.17-1.02.3-1.54,0-.04.02-.07.02-.1l.11-.12v-.28l6.24-25.48.07-.29-.6-.98-.52.13c-2.48.63-3.94.91-6.25,1.2l-.64.08v2.07h1.41c.96,0,1.31.24,1.34.27,0,.06-.01.24-.14.65l-5.74,23.3c-.12.48-.18.94-.18,1.35,0,2.86,1.88,3.17,2.68,3.17,2.67,0,4.26-1.81,6.8-5.87l.37-.59-1.72-1.21-.42.59Z"/>
        <path d="M448.2,400.63c-2.16,3.05-2.69,3.65-3.14,3.73,0-.02,0-.05,0-.09,0-.32.17-1.02.3-1.54,0-.04.02-.07.02-.1l.11-.12v-.28l6.24-25.48.07-.29-.6-.98-.52.13c-2.48.63-3.94.91-6.25,1.2l-.64.08v2.07h1.41c.96,0,1.31.24,1.34.27,0,.06-.01.24-.14.65l-5.74,23.3c-.12.48-.18.94-.18,1.35,0,2.86,1.88,3.17,2.68,3.17,2.67,0,4.26-1.81,6.8-5.87l.37-.59-1.72-1.21-.42.59Z"/>
        <path d="M463.65,390.99c0,1.45.91,2.38,2.32,2.38,1.48,0,2.64-1.22,2.64-2.78,0-2.45-2.13-4.3-4.96-4.3-6.56,0-12.53,6.74-12.53,14.15,0,4.55,2.46,7.26,6.59,7.26,3.31,0,5.71-1.45,8.29-5.01l.44-.61-1.79-1.22-.43.49c-2.1,2.42-3.52,3.32-5.23,3.32-2.56,0-2.94-2.65-2.94-4.24,0-3.61,1.37-7.4,3.56-9.88,1.06-1.2,2.46-1.89,3.84-1.89.56,0,.76.14.79.19,0,.07,0,.15-.16.5-.32.66-.43,1.07-.43,1.63Z"/>
      </g>
    </g>
    <g>
      <g>
        <path class="st10" d="M290.26,504.05c-39.41,10.66-79.66,9.04-113.52-7.45-29.2-14.23-49.41-37.47-60.05-65.48h-18.82c18.95,49.67,77.46,105.96,192.39,72.94Z"/>
        <path class="st9" d="M97.87,431.11h-36.51s-.96,0-.96,0c11.44,33,34.47,60.44,68.4,76.97,39.61,19.3,87.06,20.35,133.05,6.49,9.56-2.88,19.05-6.39,28.4-10.53-114.93,33.03-173.44-23.27-192.39-72.94Z"/>
      </g>
      <path class="st14" d="M426.46,425.77h-1.84s-25.24,0-25.24,0c-71.82,92.24-194.96,132.5-282.5,89.85-10.06-4.9-19.2-10.72-27.45-17.28,126.69,101.81,296.76-11.45,329.89-61.6h0c1.57-2.26,5.33-7.74,7.14-10.96ZM421.2,433.69s-.02.04-.03.05c.01-.02.02-.04.03-.05ZM422.71,430.86s0,.01,0,.02c0,0,0-.01,0-.02Z"/>
      <path class="st11" d="M426.46,425.77c-1.82,3.22-5.58,8.7-7.14,10.96-33.13,50.15-203.2,163.41-329.89,61.6-1.54-1.22-3.05-2.46-4.53-3.73,14.97,20.65,35.06,37.85,60.14,50.07,8.91,4.34,18.16,7.91,27.66,10.74,12.7,3.78,25.85,6.24,39.29,7.42,92.15,8.14,197.63-43.22,259.72-133.98.7-1.02,1.33-2.06,2.02-3.08h-47.27Z"/>
    </g>
  </g>
</svg>